<?xml version="1.0" encoding="UTF-8" standalone="no"?>
<!DOCTYPE svg PUBLIC "-//W3C//DTD SVG 1.1//EN" "http://www.w3.org/Graphics/SVG/1.1/DTD/svg11.dtd">
<svg width="100%" height="100%" viewBox="0 0 957 1297" version="1.1" xmlns="http://www.w3.org/2000/svg" xmlns:xlink="http://www.w3.org/1999/xlink" xml:space="preserve" xmlns:serif="http://www.serif.com/" style="fill-rule:evenodd;clip-rule:evenodd;stroke-linejoin:round;stroke-miterlimit:2;">
    <path d="M538.996,546.643C612.834,514.295 883.17,652.971 944.145,501.893C1023.98,304.089 689.003,-46.667 333.287,136.749C109.54,252.119 11.751,659.893 288.596,571.068C437.879,523.171 518.768,540.527 538.996,546.643Z" style="fill:rgb(237,195,142);fill-opacity:0.75;"/>
    <path d="M459.696,498.533C459.167,500.28 459.105,500.355 457.494,501.218C455.46,502.308 455.325,501.884 453.092,501.305C430.196,495.36 351.444,482.979 211.891,531.426C189.985,539.031 112.135,567.24 59.913,525.053C7.002,482.31 6.238,387.312 45.143,289.222C66.427,235.561 92.753,198.201 101.501,185.986C162.667,100.578 227.287,67.583 245.64,58.074C245.694,58.046 260.11,50.651 279.609,42.646C344.582,15.972 399.186,10.954 417.011,9.52C536.891,-0.125 647.74,39.684 733.761,105.141C817.156,168.6 854.078,238.191 866.577,264.17C866.634,264.289 871.528,274.72 876.593,288.563C903.633,362.464 896.797,423.803 876,466.234C845.937,527.572 791.547,528.989 744.14,528.117C724.254,527.75 705.307,526.563 680.92,526.157C680.915,526.157 672.077,526.396 661.8,527.01C614.735,529.822 583.564,537.627 559.886,545.639C468.294,576.627 400.136,643.698 345.574,716.821C313.926,759.234 294.696,792.298 281.451,817.053C237.197,899.766 222.358,973.737 233.858,1035.84C234.96,1041.78 237.586,1075.53 260.168,1113.95C276.471,1141.69 299.422,1165.63 327.281,1184.94C337.766,1192.2 349.307,1198.39 351.285,1199.45C452.659,1253.82 593.202,1248.16 665.58,1163.79C674.925,1152.89 681.803,1141.23 683.03,1139.15C685.495,1134.97 694.741,1119.5 703.092,1092.47C737.586,980.859 678.571,903.776 607.956,870.229C537.645,836.826 450.051,843.383 404.765,904.217C324.121,1012.55 392.217,1075.91 436.948,1097.9C459.826,1109.15 474.674,1109.1 474.698,1109.1C475.659,1109.34 476.681,1109.39 477.581,1109.8C477.992,1109.99 480.369,1111.07 481.477,1113.89C481.646,1114.32 482.617,1116.79 481.342,1119.63C480.102,1122.39 477.677,1123.36 477.257,1123.53C475.557,1124.2 475.52,1124.11 473.689,1124.08C430.56,1123.31 337.742,1075.08 347.089,981.931C350.75,945.445 369.114,912.8 384.98,889.988C444.481,804.437 573.882,801.777 662.65,864.155C736.587,916.11 777.284,1010.35 734.216,1127.52C728.283,1143.66 716.263,1171.57 690.719,1200.53C599.177,1304.31 421.196,1312.04 296.711,1235.99C276.31,1223.53 189.13,1170.86 164.529,1054.77C163.002,1047.57 162.936,1046.27 162.727,1044.61C148.706,933.62 201.819,832.509 234.937,779.002C242.802,766.294 252.573,752.283 254.166,750C258.896,743.217 299.423,684.732 353.581,631.84C449.211,538.443 532.667,513.884 588.142,504.335C620.728,498.726 651.094,497.713 678.534,498.061C684.078,498.131 684.081,497.822 707.918,497.612C734.575,497.378 752.996,497.533 772.069,495.274C810.884,490.676 831.8,477.732 843.852,439.884C866.55,368.6 825.626,296.074 820.532,285.906C791.501,227.95 741.847,173.616 682.151,133.937C642.578,107.634 531.202,42.436 382.387,70.531C370.48,72.779 326.698,81.011 272.31,107.242C260.358,113.006 203.872,136.307 145.408,208.045C108.412,253.441 88.855,296.183 85.483,303.429C48.134,383.667 42.669,460.779 74.985,496.704C85.224,508.087 115.565,535.548 201.453,510.672C227.865,503.021 327.469,474.37 416.79,484.732C439.853,487.408 453.142,491.725 456.665,492.884C458.396,493.453 458.487,493.488 459.346,495.093C459.477,495.337 460.236,496.753 459.696,498.533Z" style="fill:white;"/>
    <path d="M765.042,415.381C761.851,415.852 762.014,414.81 760.458,411.987C760.415,411.908 758.475,405.902 755.441,397.88C753.763,393.445 748.882,379.359 740.026,361.544C738.654,358.785 735.129,351.051 728.92,340.239C727.384,337.565 723.214,329.662 715.854,318.761C715.233,317.841 710.331,309.759 702.524,299.668C701.711,298.617 699.653,295.646 695.762,290.753C695.037,289.84 693.099,287.136 689.257,282.445C687.917,280.81 688.019,280.73 681.143,272.41C680.572,271.719 679.424,270.331 673.831,263.909C667.872,257.066 663.657,252.987 657.569,247.075C655.258,244.831 649.686,239.369 637.782,229.94C636.58,228.988 630.315,223.867 616.894,215.1C601.551,205.078 587.271,198.126 572.328,191.716C554.174,183.93 539.321,179.729 539.168,179.619C538.313,178.998 537.214,178.617 536.603,177.755C536.592,177.739 535.872,174.961 535.877,174.954C536.411,174.157 536.704,173.122 537.487,172.568C539.178,171.369 539.314,171.604 541.384,171.694C570.084,172.945 588.27,176.977 592.75,177.943C607.236,181.066 621.05,185.158 634.172,190.159C635.734,190.754 650.934,196.809 664.292,204.517C673.31,209.721 680.363,214.523 685.039,217.858C685.078,217.886 692.036,222.934 700.62,230.467C704.398,233.782 708.408,237.352 715.821,245.358C716.602,246.201 722.138,252.563 724.446,255.605C729.573,262.363 731.966,266.108 732.571,267.054C738.057,275.638 739.85,279.343 740.363,280.322C744.295,287.838 748.698,297.237 750.916,303.055C755.048,313.893 757.65,322.706 758.824,326.766C758.986,327.327 763.171,342.831 765.162,356.631C767.274,371.277 768.475,387.041 768.561,398.218C768.616,405.24 768.45,410.796 768.447,410.807C767.69,413.57 767.769,413.602 767.621,413.801C766.621,415.149 765.281,415.346 765.042,415.381Z" style="fill:white;"/>
</svg>
