<?xml version="1.0" encoding="UTF-8" standalone="no"?>
<!DOCTYPE svg PUBLIC "-//W3C//DTD SVG 1.1//EN" "http://www.w3.org/Graphics/SVG/1.1/DTD/svg11.dtd">
<svg width="100%" height="100%" viewBox="0 0 848 1195" version="1.1" xmlns="http://www.w3.org/2000/svg" xmlns:xlink="http://www.w3.org/1999/xlink" xml:space="preserve" xmlns:serif="http://www.serif.com/" style="fill-rule:evenodd;clip-rule:evenodd;stroke-linejoin:round;stroke-miterlimit:2;">
    <path d="M442.41,1004.87C443.768,1005.18 445.209,1005.24 446.482,1005.8C447.064,1006.06 450.419,1007.54 451.991,1011.54C452.231,1012.15 453.613,1015.67 451.821,1019.73C450.085,1023.67 446.672,1025.01 446.079,1025.24C443.809,1026.13 443.76,1026.02 441.323,1025.99C401.83,1025.54 320.222,984.001 322.467,902.507C323.461,866.419 340.71,833.473 357.135,809.443C402.057,743.723 492.376,728.47 570.842,759.39C610.096,774.859 647.997,802.602 672.769,843.964C705.772,899.069 707.36,964.806 683.628,1029.87C673.375,1057.98 659.507,1078.65 646.401,1094.46C562.531,1195.66 394.091,1206.11 275.191,1134.98C257.918,1124.65 174.102,1076.65 148.03,966.792C146.861,961.868 146.087,957.949 145.928,957.159C145.925,957.141 144.869,949.575 144.229,939.487C137.997,841.237 184.391,754.589 215.129,706.291C220.059,698.545 227.337,688.211 228.429,686.66C233.414,679.581 258.874,643.43 296.837,602.795C387.439,505.813 468.959,473.805 531.348,462.485C550.258,459.053 577.097,454.724 624.258,455.929C627.604,456.015 627.601,455.908 632.024,455.751C656.055,454.893 678.535,455.041 694.08,453.738C733.853,450.404 749.463,441.276 759.116,416.794C772.165,383.701 770.442,336.078 740.124,281.172C736.96,275.442 716.703,231.102 664.273,183.929C606.024,131.519 530.395,96.636 450.604,90.642C424.191,88.658 369.001,87.46 301.747,112.946C297.413,114.588 284.83,119.199 267.983,127.273C258.843,131.654 210.457,150.144 159.045,211.025C158.928,211.164 145.83,226.249 130.861,248.73C75.65,331.645 58.755,424.969 94.526,459.858C125.541,490.107 188.272,470.974 202.978,467.065C333.338,432.413 403.248,449.306 421.443,454.591C423.92,455.311 426.889,456.32 426.941,456.348C427.68,456.749 428.508,457.019 429.156,457.555C429.452,457.801 431.162,459.216 431.428,461.797C431.448,461.997 431.562,463.099 431.196,464.306C431.082,464.68 430.426,466.843 428.091,468.094C427.371,468.479 426.563,468.736 425.751,468.816C424.049,468.984 424.061,468.764 422.399,468.365C401.412,463.323 331.567,453.988 209.494,498.623C188.834,506.178 117.895,532.79 67.713,494.025C26.108,461.885 14.514,395.658 34.911,315.737C53.071,244.579 89.139,191.98 94.248,184.37C150.997,99.844 213.813,66.876 230.47,57.968C236.382,54.807 256.698,45.028 276.833,37.642C318.393,22.396 366.712,11.434 421.694,11.4C501.723,11.351 580.174,34.726 649.746,78.94C713.735,119.607 750.283,165.34 763.655,182.909C785.333,211.391 797.757,235.476 804.036,248.611C804.066,248.673 809.613,260.854 814.913,276.999C837.815,346.77 828.645,402.882 809.182,440.377C780.606,495.427 731.549,499.241 692.126,498.264C668.42,497.676 668.434,497.387 644.744,496.264C634.675,495.786 629.137,495.624 626.519,495.544C626.501,495.544 617.329,495.914 606.811,496.755C586.87,498.349 565.679,501.273 543.628,507.042C531.706,510.162 519.893,514.568 517.865,515.324C441.44,543.828 379.657,603.14 322.821,688.208C303.325,717.387 292.022,738.659 284.417,753.249C247.328,824.411 234.764,888.026 245.63,940.473C245.932,941.93 245.961,943.997 246.878,950C256.205,1011.09 296.278,1046.95 319.078,1063.53C324.859,1067.73 332.358,1072.17 333.543,1072.88C418.234,1123.05 541.065,1121.81 604.196,1050.57C608.816,1045.35 613.115,1039.14 613.832,1038.1C619.112,1030.46 628.29,1016.06 636.412,990.411C660.227,915.196 633.62,858.735 590.687,823.913C529.179,774.027 431.464,768.499 385.024,829.5C332.838,898.051 350.888,945.443 380.408,973.768C400.332,992.886 426.455,1003.91 442.41,1004.87Z" style="fill:white;"/>
</svg>
