<?xml version="1.0" encoding="UTF-8" standalone="no"?>
<!DOCTYPE svg PUBLIC "-//W3C//DTD SVG 1.1//EN" "http://www.w3.org/Graphics/SVG/1.1/DTD/svg11.dtd">
<svg width="100%" height="100%" viewBox="0 0 303 305" version="1.1" xmlns="http://www.w3.org/2000/svg" xmlns:xlink="http://www.w3.org/1999/xlink" xml:space="preserve" xmlns:serif="http://www.serif.com/" style="fill-rule:evenodd;clip-rule:evenodd;stroke-linejoin:round;stroke-miterlimit:2;">
    <path d="M259.923,63.377C239.723,67.677 231.423,72.577 215.223,89.577C205.023,100.277 201.923,104.277 198.823,110.577C196.723,114.877 194.823,118.377 194.523,118.377C194.223,118.377 192.723,116.377 191.123,113.777C185.423,104.877 161.223,81.477 157.623,81.477C156.923,81.477 151.023,87.077 143.623,94.777L139.323,99.277L145.123,103.277C152.323,108.177 168.223,124.477 173.223,132.277C175.323,135.377 177.323,138.177 177.623,138.477C178.023,138.777 181.623,145.277 185.623,152.977C189.723,160.677 193.523,167.677 194.023,168.577C199.623,177.577 203.623,187.277 206.123,197.477C208.123,205.577 207.823,207.277 204.123,212.377C199.423,218.877 192.223,232.077 187.623,242.777C174.423,273.777 171.823,300.377 181.623,303.877C187.423,305.877 190.523,304.077 203.423,291.077C221.123,273.277 224.723,266.077 226.623,244.177C227.723,231.577 227.423,205.677 225.923,193.877L225.323,188.877L232.023,180.377C235.823,175.777 239.523,171.177 240.423,170.177C241.723,168.577 241.723,168.477 240.223,169.077C239.323,169.377 238.523,169.977 238.523,170.377C238.523,171.677 225.723,184.677 225.223,183.777C224.923,183.377 224.323,181.177 223.923,178.977C223.023,173.877 220.423,166.377 217.523,160.077L215.223,155.177L227.323,143.577C237.723,133.577 244.223,125.477 241.923,125.477C241.523,125.477 237.723,129.077 233.423,133.477C229.123,137.877 224.923,141.477 224.023,141.477C216.123,141.477 209.423,126.977 210.923,113.077C211.523,106.977 214.123,97.377 216.523,92.377C218.623,87.777 228.923,83.677 244.823,80.877C263.223,77.677 276.923,80.577 282.323,88.777C284.623,92.277 284.823,93.077 284.223,100.977C283.323,114.177 276.123,128.277 261.723,145.377C255.323,152.977 257.723,151.377 265.523,142.977C283.523,123.477 290.623,114.077 296.423,101.977C306.823,80.377 303.923,66.977 287.923,62.577C282.223,60.977 269.223,61.377 259.923,63.377ZM209.423,240.577C209.623,261.077 206.823,281.877 203.423,285.877C201.923,287.577 196.923,284.477 195.223,280.877C192.923,276.077 193.023,265.177 195.623,255.177C198.523,243.777 202.323,232.177 205.323,225.577L207.923,219.977L208.623,225.477C209.023,228.477 209.323,235.277 209.423,240.577Z" style="fill:white;fill-rule:nonzero;"/>
    <path d="M123.148,1.708C119.648,3.008 115.048,7.008 102.948,19.008C88.848,32.908 86.848,35.408 83.748,42.008C80.448,49.408 77.148,61.708 77.148,67.008C77.148,68.508 76.748,70.008 76.348,70.308C75.948,70.508 75.448,78.308 75.248,87.608C75.048,104.308 76.348,119.308 79.648,137.308C80.448,141.608 81.148,145.208 81.148,145.408C81.148,145.508 79.348,146.208 77.248,146.908C74.648,147.708 70.548,151.008 64.548,157.008L55.748,165.808L63.548,163.408C73.748,160.108 80.448,160.108 83.648,163.408C86.548,166.208 86.748,168.308 84.648,176.408C81.548,188.408 73.048,203.608 66.748,208.408C61.348,212.508 50.548,214.808 41.748,213.808C20.348,211.408 14.148,198.508 20.548,169.308C24.548,151.208 37.848,119.608 47.548,105.408C52.648,98.008 59.748,88.308 62.548,84.808C65.948,80.708 53.148,93.908 46.448,101.408C31.948,117.808 18.148,141.708 8.748,166.708C1.148,187.208 -1.852,206.408 1.148,216.308C4.148,226.308 13.548,231.908 27.148,231.908C40.948,231.908 49.148,227.908 63.048,214.608C73.148,205.008 87.248,189.208 90.648,183.808C92.248,181.108 93.948,178.908 94.348,178.908C94.648,178.908 96.348,181.308 98.048,184.108C105.248,196.708 115.648,202.908 129.548,202.908C134.448,202.908 134.648,202.808 141.848,195.208L149.148,187.608C149.148,187.608 147.848,185.708 138.948,183.808C123.948,180.608 115.948,170.308 103.648,139.008C97.448,123.008 93.148,96.608 93.148,73.808C93.148,56.808 92.848,57.508 103.948,49.008C114.848,40.608 141.148,14.608 143.648,9.808C145.748,5.908 144.948,2.608 141.648,1.108C138.048,-0.592 128.448,-0.292 123.148,1.708ZM124.548,20.008C129.648,24.008 128.448,25.708 111.948,39.008C103.548,45.808 96.348,51.708 96.048,52.208C92.948,56.708 96.848,34.908 100.748,26.208C103.548,19.808 106.748,18.008 115.748,17.908C120.448,17.908 122.448,18.408 124.548,20.008Z" style="fill:white;fill-rule:nonzero;"/>
</svg>
