<?xml version="1.0" encoding="UTF-8" standalone="no"?>
<!DOCTYPE svg PUBLIC "-//W3C//DTD SVG 1.1//EN" "http://www.w3.org/Graphics/SVG/1.1/DTD/svg11.dtd">
<svg width="100%" height="100%" viewBox="0 0 1110 1703" version="1.1" xmlns="http://www.w3.org/2000/svg" xmlns:xlink="http://www.w3.org/1999/xlink" xml:space="preserve" xmlns:serif="http://www.serif.com/" style="fill-rule:evenodd;clip-rule:evenodd;stroke-linejoin:round;stroke-miterlimit:2;">
    <path d="M141.122,625.464C141.597,624.943 144.322,621.949 149.1,621.722C150.573,621.652 152.089,621.859 153.478,622.354C156.103,623.292 156.039,623.459 158.106,625.328C181.786,646.739 207.122,661.533 211.696,664.204C265.056,695.362 334.546,716.393 428.503,718.31C496.237,719.691 563.692,710.683 598.708,705.51C603.029,704.872 617.432,702.744 652.621,696.89C715.823,686.377 766.404,676.033 813.991,670.716C867.789,664.705 914.017,665.664 937.702,691.304C950.67,705.342 952.559,724.362 934.386,742.154C925.51,750.844 899.091,772.996 799.512,799.153C761.562,809.121 712.207,819.808 661.412,827.455C660.724,827.558 656.782,828.152 652.967,825.379C651.795,824.527 650.757,823.438 649.996,822.204C647.501,818.163 648.46,814.23 648.626,813.549C649.719,809.073 653.074,806.991 653.655,806.63C656.183,805.062 656.301,805.292 659.234,804.803C752.439,789.273 872.675,757.572 910.798,726.881C917.545,721.449 920.783,716.633 920.127,714.26C919.476,711.905 914.4,705.294 901.761,701.095C870.92,690.848 816.003,699.055 757.879,709.114C718.548,715.92 669.871,725.317 633.308,730.983C552.024,743.579 491.358,748.298 435.27,746.888C360.785,745.015 287.733,731.899 221.789,697.753C181.162,676.716 155.241,653.844 141.903,641.75C141.38,641.276 138.379,638.555 138.152,633.764C137.924,628.978 140.648,625.985 141.122,625.464Z" style="fill:white;"/>
    <path d="M457.556,838.337C457.255,839.564 457.075,840.827 456.654,842.018C454.798,847.278 450.956,850.176 450.268,850.695C449.58,851.213 445.74,854.11 440.182,854.442C438.927,854.518 437.664,854.415 436.413,854.292C436.409,854.292 427.967,852.959 418.754,851.43C179.498,811.726 86.059,757.776 76.926,625.801C74.879,596.227 77.297,566.3 79.872,543.436C79.935,542.876 80.296,539.674 83.234,537.244C84.135,536.498 85.192,535.904 86.307,535.553C89.943,534.412 92.805,535.948 93.3,536.214C96.565,537.967 97.54,541.015 97.709,541.542C98.435,543.814 98.243,543.859 98.064,546.236C89.246,663.229 113.232,723.951 202.879,763.862C263.733,790.955 350.894,806.091 441.607,817.184C443.294,817.39 444.989,817.995 445.274,818.096C450.521,819.967 453.419,823.809 453.938,824.497C454.456,825.184 457.353,829.025 457.698,834.569L457.556,838.337Z" style="fill:white;"/>
    <path d="M595.145,855.29C595.148,854.378 595.17,849.143 599.562,844.784C600.915,843.441 602.55,842.326 604.313,841.599C606.129,840.85 608.149,840.728 610.094,840.442C610.099,840.441 629.359,840.711 657.711,839.108C796.828,831.241 905.019,791.711 971.193,734.689C1047.61,668.837 1070.32,576.395 1001.78,474.404C992.877,461.158 958.144,409.335 909.647,345.648C891.03,321.199 865.092,288.065 830.295,247.899C724.34,125.594 633.178,60.028 571.121,67.198C479.674,77.763 360.693,182.581 262.451,307.602C206.258,379.112 164.056,448.764 147.624,491.778C135.131,524.482 162.745,567.465 208.601,602.983C265.894,647.36 360.042,686.468 460.802,681.727C464.577,681.549 466.928,683.641 467.342,684.009C468.208,684.78 468.947,685.731 469.454,686.774C471.123,690.203 470.05,693.268 469.864,693.799C468.645,697.283 465.816,698.663 465.325,698.902C463.204,699.936 463.129,699.744 460.774,699.896C301.838,710.191 139.783,613.167 120.905,524.396C115.804,500.407 122.571,484.531 125.271,477.527C149.308,415.187 215.984,309.381 298.38,216.42C383.721,120.137 481.405,41.954 567.221,31.159C612.716,25.437 696.078,42.146 842.95,202.733C858.833,220.098 878.78,242.616 906.845,277.503C947.091,327.533 976.982,369.527 992.949,392.247C1011.3,418.362 1033.34,450.918 1040.28,462.161C1113.56,580.785 1083.95,701.378 969.883,780.589C909.138,822.772 798.33,869.836 622.486,870.218C620.02,870.223 618.645,870.272 610.002,870.249C609.089,870.246 603.851,870.232 599.483,865.832C595.119,861.435 595.141,856.202 595.145,855.29Z" style="fill:white;"/>
    <path d="M620.108,1415.85C653.745,1398.39 683.416,1371 709.12,1333.67C732.989,1299.01 748.445,1263.96 755.489,1228.52C762.532,1193.09 764.793,1162.21 762.27,1135.91C759.747,1109.61 751.819,1084.5 738.485,1060.57C725.151,1036.65 707.152,1016.89 684.489,1001.28C652.494,979.248 620.669,970.762 589.014,975.823L552.185,842.37C564.673,828.041 576.119,813.322 586.524,798.213C654.458,699.561 662.428,632.333 610.436,596.53C597.105,587.35 583.449,584.825 569.468,588.954C555.488,593.084 543.004,602.175 532.017,616.228C516.884,637.252 508.972,663.249 508.282,694.218C507.591,725.188 512.078,762.67 521.743,806.667C444.623,889.167 394.665,946.97 371.867,980.076C349.069,1013.18 331.258,1048.08 318.434,1084.78C305.61,1121.48 299.141,1158.46 299.03,1195.73C298.918,1232.99 309.075,1269.14 329.5,1304.16C349.926,1339.19 380.135,1370.48 420.129,1398.02C477.454,1437.5 534.246,1447.78 590.503,1428.87C579.224,1462.37 561.267,1497.01 536.633,1532.78C511.999,1568.56 480.371,1594.27 441.747,1609.93C403.123,1625.59 368.925,1623.16 339.152,1602.66C336.93,1601.13 334.178,1602.51 330.895,1606.8C327.613,1611.09 327.305,1614.15 329.971,1615.99C365.077,1640.17 405.361,1643.5 450.822,1626C496.283,1608.5 532.936,1579.54 560.783,1539.1C588.63,1498.66 608.405,1457.57 620.108,1415.85ZM568.961,980.684C544.891,989.003 525.587,1003.72 511.052,1024.82C496.517,1045.93 486.733,1067.04 481.701,1088.14C476.669,1109.24 477.903,1131.71 485.401,1155.54C492.9,1179.38 507.314,1198.64 528.644,1213.32C533.088,1216.38 537.297,1217.64 541.271,1217.11C545.245,1216.57 549.36,1214.16 553.615,1209.88C534.506,1196.73 523.073,1175.75 519.316,1146.96C513.345,1106.16 521.07,1070.21 542.49,1039.1C551.365,1026.22 562.377,1015.46 575.527,1006.82C595.921,1083.76 609.15,1154.45 615.214,1218.89C621.278,1283.34 615.785,1345.07 598.734,1404.07C545.251,1427.52 491.403,1420.57 437.189,1383.24C403.86,1360.29 379.462,1333.17 363.994,1301.88C348.526,1270.59 341.944,1238.05 344.249,1204.26C348.69,1137.88 374.014,1071.14 420.221,1004.04C431.543,987.596 469.969,940.358 535.497,862.323L568.961,980.684ZM595.165,999.712C619.79,994.395 644.544,1000.31 669.43,1017.44C694.315,1034.58 712.625,1056.03 724.359,1081.8C745.942,1129.42 746.678,1184.95 726.567,1248.4C718.376,1275.52 706.172,1300.85 689.953,1324.41C671.899,1350.62 651,1371.93 627.256,1388.34C649.534,1290.35 638.837,1160.81 595.165,999.712ZM575.938,740.808C567.676,752.806 555.549,768.039 539.557,786.506C525.246,713.106 528.342,661.52 548.845,631.747C564.757,608.639 581.156,602.899 598.043,614.528C627.372,634.724 620.004,676.818 575.938,740.808Z" style="fill:white;fill-rule:nonzero;"/>
</svg>
