<?xml version="1.0" encoding="UTF-8" standalone="no"?>
<!DOCTYPE svg PUBLIC "-//W3C//DTD SVG 1.1//EN" "http://www.w3.org/Graphics/SVG/1.1/DTD/svg11.dtd">
<svg width="100%" height="100%" viewBox="0 0 3508 2481" version="1.1" xmlns="http://www.w3.org/2000/svg" xmlns:xlink="http://www.w3.org/1999/xlink" xml:space="preserve" xmlns:serif="http://www.serif.com/" style="fill-rule:evenodd;clip-rule:evenodd;stroke-linecap:round;stroke-linejoin:round;stroke-miterlimit:1.5;">
    <path d="M2259.08,727.22C2258.68,725.34 1998.53,587.719 1888.66,555.142C1643.95,482.58 1405.82,613.573 1635.05,700.382C1801.73,763.501 1821.09,731.038 1948.55,855.411C2008.67,914.075 2419.42,911.475 2308.86,768.298" style="fill:rgb(202,157,103);fill-opacity:0.53;"/>
    <path d="M1875.86,829.53C1637.98,639.615 1024.29,773.358 1088.12,871.396C1116.44,914.877 1366.22,936.254 1487.29,939.465C1763.35,946.785 1831.28,897.732 1875.86,829.53Z" style="fill:rgb(139,108,70);fill-opacity:0.53;"/>
    <path d="M1485.16,1216.08C1745.93,1021.91 2226.07,1101.52 1935.71,1253.82C1686.62,1384.47 1198.22,1318.25 1466.71,1144.52C1538.66,1097.96 1889,1035.54 1849.89,896.733C1816.94,779.786 1496.33,904.501 1685.86,1214C1775.38,1360.2 1838.27,1426.87 1810.74,1530.99" style="fill:none;stroke:black;stroke-width:8.48px;"/>
    <path d="M1476.98,572.509C1414.45,617.158 1102.15,796.451 1122.67,844.493C1132.9,868.458 1305.81,759.103 1199.62,866.18C1213.37,872.117 1224.83,868.917 1215.46,880.988C1206.55,892.466 1326.37,866.341 1374.01,913.001C1529.13,886.224 1531.34,921.091 1601.84,900.604C1616.68,896.291 1606.66,889.691 1527.96,722.105C1558.89,771.233 1631.7,906.241 1663.52,906.534C1714.79,907.006 1897.3,891.168 1917.6,889.407C1774.61,777.826 1776.34,764.766 1739.91,709.452C1953.62,899.306 1961.72,895.175 2014.32,893.122C2070.74,890.921 2073.13,919.442 2250.32,872.037C2198.9,829.2 2198.71,831.519 2142.11,795.654C2265.74,817.623 2270.12,807.18 2306.83,835.187C2311.07,838.421 2390.02,845.813 2316.96,769.314C2209.67,656.993 2187.22,692.912 1849.64,561.477C1765.59,528.751 1681.69,564.157 1653.39,548.887C1578.14,508.279 1571.49,518.588 1497.56,561.842" style="fill:none;stroke:black;stroke-width:8.33px;"/>
    <path d="M976.372,1802.77C968.076,1787.18 963.927,1768.83 963.927,1747.71C963.927,1728.1 967.258,1710.57 973.921,1695.11C980.583,1679.64 987.874,1667.2 995.793,1657.77C1003.71,1648.34 1013.39,1640.8 1024.83,1635.14C1036.27,1629.49 1048.4,1626.66 1061.22,1626.66C1079.32,1626.66 1093.78,1631.81 1104.59,1642.12L1153.99,1600.64C1152.98,1591.84 1152.48,1583.17 1152.48,1574.62C1152.48,1518.81 1167.19,1490.9 1196.6,1490.9C1204.14,1490.9 1210.05,1493.54 1214.33,1498.82C1218.6,1504.1 1220.99,1510.89 1221.49,1519.18C1221.74,1531.25 1217.91,1543.32 1209.99,1555.39C1202.07,1567.45 1190.44,1580.65 1175.11,1594.98C1182.9,1647.02 1186.8,1682.41 1186.8,1701.14C1186.8,1719.87 1184.41,1737.97 1179.63,1755.44C1174.86,1772.91 1167.56,1788.82 1157.76,1803.15C1147.95,1817.48 1134.51,1828.66 1117.41,1836.71C1100.31,1844.75 1080.45,1848.78 1057.83,1848.78C1025.4,1848.78 1000.88,1837.71 984.291,1815.59C979.766,1831.43 977.503,1849.47 977.503,1869.7C977.503,1889.94 982.845,1908.17 993.53,1924.38C1004.22,1940.6 1017.98,1948.71 1034.82,1948.71C1036.08,1948.71 1036.77,1949.97 1036.9,1952.48C1037.02,1954.99 1036.33,1956.25 1034.82,1956.25C1014.96,1956.25 998.621,1946.89 985.799,1928.16C972.978,1909.43 966.567,1888.62 966.567,1865.75C966.567,1842.87 969.835,1821.88 976.372,1802.77ZM1111,1649.29C1118.04,1658.84 1121.56,1669.59 1121.56,1681.53C1121.56,1693.47 1119.74,1704.15 1116.09,1713.58C1112.44,1723.01 1106.03,1731.31 1096.86,1738.47C1087.68,1745.64 1077.06,1749.22 1064.99,1749.22C1062.48,1749.22 1060.53,1748.59 1059.15,1747.33C1057.76,1746.08 1056.82,1744.07 1056.32,1741.3C1067.13,1741.3 1077.06,1736.27 1086.11,1726.22C1099.18,1712.14 1105.72,1696.3 1105.72,1678.7C1105.72,1671.41 1104.34,1664.37 1101.57,1657.58C1073.41,1681.72 1049.66,1705.35 1030.3,1728.48C1010.94,1751.61 996.736,1776.75 987.685,1803.9C1002.01,1827.03 1024.52,1838.59 1055.19,1838.59C1074.04,1838.59 1090.57,1834.63 1104.78,1826.72C1118.98,1818.8 1130.11,1808.05 1138.15,1794.47C1153.99,1767.82 1161.91,1735.52 1161.91,1697.56C1161.91,1688.25 1159.64,1659.97 1155.12,1612.71L1111,1649.29ZM1095.91,1649.66C1087.87,1641.12 1076.81,1636.84 1062.73,1636.84C1048.65,1636.84 1035.95,1640.24 1024.64,1647.02C1003.77,1659.59 988.816,1680.71 979.766,1710.38C975.743,1722.95 973.732,1735.89 973.732,1749.22C973.732,1764.05 976.12,1777.75 980.897,1790.32C998.244,1746.83 1036.58,1699.94 1095.91,1649.66ZM1171.71,1555.39C1171.71,1562.17 1172.34,1571.23 1173.6,1582.54C1198.49,1558.15 1210.93,1537.54 1210.93,1520.69C1210.93,1507.62 1206.15,1501.08 1196.6,1501.08C1180.01,1501.08 1171.71,1519.18 1171.71,1555.39Z" style="fill-rule:nonzero;"/>
    <path d="M1249.77,1743.19C1249.77,1773.61 1260.58,1788.82 1282.2,1788.82C1290.25,1788.82 1298.73,1785.23 1307.66,1778.07C1316.58,1770.9 1324.69,1762.29 1331.98,1752.24C1348.07,1729.11 1359.38,1710.25 1365.92,1695.67L1370.82,1685.11L1381.01,1685.11C1376.73,1695.17 1370.45,1707.55 1362.15,1722.26C1353.85,1736.96 1345.93,1749.35 1338.39,1759.4C1330.85,1769.46 1321.93,1778.57 1311.62,1786.74C1301.31,1794.91 1291.51,1799 1282.2,1799C1245,1799 1226.39,1778.13 1226.39,1736.4C1226.39,1717.04 1232.05,1697.68 1243.36,1678.32C1258.95,1651.42 1278.18,1637.97 1301.06,1637.97C1317.15,1637.97 1325.19,1646.77 1325.19,1664.37C1325.19,1677.44 1320.17,1691.02 1310.11,1705.1C1296.03,1724.2 1279.57,1733.88 1260.71,1734.13C1257.94,1734.13 1256.18,1732.88 1255.43,1730.36L1255.05,1728.86C1268.13,1728.86 1280.63,1720.25 1292.58,1703.02C1304.52,1685.8 1310.49,1671.41 1310.49,1659.85C1310.49,1652.05 1307.47,1648.15 1301.44,1648.15C1288.11,1648.15 1275.67,1659.85 1264.1,1683.23C1254.55,1703.09 1249.77,1723.07 1249.77,1743.19Z" style="fill-rule:nonzero;"/>
    <path d="M1359.89,1633.45C1359.89,1630.68 1361.65,1629.3 1365.17,1629.3L1384.78,1629.3C1386.03,1624.27 1387.67,1617.99 1389.68,1610.44L1394.96,1590.84C1396.47,1585.05 1397.79,1579.77 1398.92,1575C1400.05,1570.22 1402.25,1567.83 1405.52,1567.83C1409.79,1567.83 1412.81,1571.1 1414.57,1577.64C1415.32,1580.4 1415.7,1583.8 1415.7,1587.82C1415.7,1591.84 1414.94,1597 1413.44,1603.28L1406.27,1629.3L1429.65,1629.3C1431.91,1629.3 1433.49,1630.05 1434.37,1631.56C1435.25,1633.07 1435.25,1634.52 1434.37,1635.9C1433.49,1637.28 1431.91,1637.97 1429.65,1637.97L1404.01,1637.97C1388.42,1696.55 1380.63,1738.03 1380.63,1762.42C1380.63,1780.27 1384.65,1789.19 1392.7,1789.19C1399.23,1789.19 1408.41,1780.52 1420.23,1763.17C1432.04,1745.83 1442.22,1728.48 1450.77,1711.13L1463.59,1685.11L1473.77,1685.11C1472.27,1688.13 1470.32,1692.21 1467.93,1697.37C1465.54,1702.52 1460.83,1711.7 1453.79,1724.9C1446.75,1738.1 1440.02,1749.72 1433.61,1759.78C1427.2,1769.84 1420.04,1778.95 1412.12,1787.12C1404.2,1795.29 1396.84,1799.37 1390.06,1799.37C1383.27,1799.37 1377.42,1797.17 1372.52,1792.78C1367.62,1788.38 1364.48,1782.09 1363.09,1773.92C1361.71,1765.75 1361.02,1757.39 1361.02,1748.84C1361.02,1728.98 1368.06,1692.03 1382.14,1637.97L1365.17,1637.97C1363.16,1637.97 1361.77,1637.41 1361.02,1636.28C1360.27,1635.14 1359.89,1634.2 1359.89,1633.45Z" style="fill-rule:nonzero;"/>
    <path d="M1474.15,1798.62C1454.29,1798.62 1444.36,1783.66 1444.36,1753.75C1444.36,1736.4 1448.88,1717.42 1457.93,1696.8C1470.51,1668.9 1486.47,1650.67 1505.83,1642.12C1512.62,1639.36 1519.47,1637.97 1526.38,1637.97C1533.29,1637.97 1538.76,1639.99 1542.78,1644.01C1546.81,1648.03 1548.82,1652.56 1548.82,1657.58C1548.82,1659.85 1547.62,1660.91 1545.24,1660.79C1542.85,1660.66 1541.65,1659.47 1541.65,1657.21C1541.65,1654.94 1540.46,1652.87 1538.07,1650.98C1535.68,1649.1 1532.23,1648.15 1527.7,1648.15C1511.86,1648.15 1497.53,1662.36 1484.71,1690.77C1472.64,1717.16 1466.61,1742.18 1466.61,1765.81C1466.61,1780.39 1469.81,1787.68 1476.23,1787.68C1482.64,1787.68 1490.43,1782.22 1499.61,1771.28C1508.78,1760.34 1517.27,1747.59 1525.06,1733C1541.9,1702.33 1551.84,1682.6 1554.85,1673.8C1557.87,1665 1561.14,1660.6 1564.66,1660.6C1570.94,1660.6 1574.08,1665.88 1574.08,1676.44C1574.08,1679.71 1573.71,1683.48 1572.95,1687.75C1564.66,1727.98 1560.19,1751.23 1559.57,1757.52C1558.94,1763.8 1558.62,1768.33 1558.62,1771.09C1558.62,1783.16 1561.51,1789.19 1567.3,1789.19C1573.83,1789.19 1583.01,1780.52 1594.83,1763.17C1606.64,1745.83 1616.82,1728.48 1625.37,1711.13L1638.19,1685.11L1648.37,1685.11C1646.87,1688.13 1644.92,1692.21 1642.53,1697.37C1640.14,1702.52 1635.43,1711.7 1628.39,1724.9C1621.35,1738.1 1614.62,1749.72 1608.21,1759.78C1601.8,1769.84 1594.64,1778.95 1586.72,1787.12C1578.8,1795.29 1571.95,1799.37 1566.16,1799.37C1547.56,1799.37 1538.26,1785.8 1538.26,1758.65C1538.26,1749.6 1539.26,1739.04 1541.28,1726.97L1538.64,1726.97C1512.99,1774.74 1491.5,1798.62 1474.15,1798.62Z" style="fill-rule:nonzero;"/>
    <path d="M1684.2,1596.87L1684.95,1596.87C1687.22,1597.12 1688.98,1598.13 1690.23,1599.89C1691.49,1601.65 1692.12,1603.47 1692.12,1605.35C1692.12,1607.24 1690.42,1611.2 1687.03,1617.23C1683.63,1623.27 1681.94,1628.11 1681.94,1631.75C1681.94,1635.4 1682.44,1638.79 1683.44,1641.93C1684.45,1645.08 1687.59,1652.68 1692.87,1664.75C1704.44,1691.14 1710.22,1714.71 1710.22,1735.45C1710.22,1756.2 1704.62,1773.35 1693.44,1786.93C1682.25,1800.51 1668.93,1807.29 1653.47,1807.29C1638,1807.29 1630.27,1797.93 1630.27,1779.2C1630.27,1760.47 1636.93,1740.42 1650.26,1719.05C1658.05,1706.73 1666.48,1697.43 1675.53,1691.14C1678.04,1689.38 1679.74,1689.76 1680.62,1692.28C1681.5,1694.79 1680.93,1696.8 1678.92,1698.31C1664.34,1708.87 1653.03,1725.59 1644.98,1748.47C1637.69,1769.08 1636.93,1783.41 1642.72,1791.45C1644.73,1794.47 1647.62,1795.98 1651.39,1795.98C1662.45,1795.98 1671.13,1788.56 1677.41,1773.73C1683.7,1758.9 1686.84,1740.42 1686.84,1718.3C1686.84,1699.19 1684.58,1681.47 1680.05,1665.12C1675.53,1648.78 1673.01,1639.36 1672.51,1636.84C1664.97,1651.17 1656.8,1667.26 1648,1685.11L1637.82,1685.11C1652.14,1656.7 1663.21,1635.33 1671,1621C1672.01,1604.91 1676.4,1596.87 1684.2,1596.87Z" style="fill-rule:nonzero;"/>
    <path d="M2069.98,1535.78C2073.5,1535.78 2075.89,1537.29 2077.14,1540.3L2077.52,1542.19C2058.92,1542.19 2046.97,1560.92 2041.69,1598.38C2039.18,1615.22 2037.04,1633.76 2035.28,1654C2033.52,1674.24 2030.88,1694.48 2027.37,1714.71C2023.85,1734.95 2018.88,1753.43 2012.47,1770.15C2006.06,1786.87 1996.13,1800.44 1982.68,1810.88C1969.23,1821.31 1952.7,1826.53 1933.09,1826.53C1920.27,1826.53 1909.27,1824.08 1900.09,1819.17C1890.91,1814.27 1884.32,1807.8 1880.29,1799.75C1875.27,1789.44 1872.75,1779.64 1872.75,1770.34C1872.75,1761.04 1874.13,1752.17 1876.9,1743.75C1879.66,1735.33 1883.5,1727.16 1888.4,1719.24C1893.3,1711.32 1899.78,1704.91 1907.82,1700.01C1915.87,1695.11 1924.41,1692.65 1933.47,1692.65C1938.24,1692.65 1941.64,1694.41 1943.65,1697.93L1944.78,1699.82C1923.66,1699.82 1906.94,1709.5 1894.62,1728.86C1886.58,1741.68 1882.56,1754.88 1882.56,1768.45C1882.56,1772.73 1883.06,1777.12 1884.07,1781.65C1887.58,1800 1897.64,1811.07 1914.23,1814.84C1918.26,1815.84 1922.4,1816.34 1926.68,1816.34C1941.76,1816.34 1954.58,1811.19 1965.14,1800.88C1975.7,1790.58 1983.75,1777.19 1989.28,1760.72C1994.81,1744.25 1999.46,1726.03 2003.23,1706.04C2007,1686.05 2010.39,1666.07 2013.41,1646.08C2016.43,1626.1 2019.95,1607.87 2023.97,1591.4C2027.99,1574.93 2033.84,1561.55 2041.51,1551.24C2049.17,1540.93 2058.66,1535.78 2069.98,1535.78ZM2149.55,1487.51C2157.84,1487.51 2161.99,1492.41 2161.99,1502.21C2161.99,1509.76 2158.03,1516.73 2150.11,1523.14C2142.19,1529.56 2129.75,1532.76 2112.78,1532.76C2095.81,1532.76 2074.57,1528.61 2049.05,1520.32C2023.53,1512.02 2003.23,1507.87 1988.15,1507.87C1955.72,1507.87 1930.45,1520.82 1912.35,1546.71C1900.03,1564.31 1893.87,1583.17 1893.87,1603.28C1893.87,1631.94 1903.67,1650.92 1923.28,1660.22C1930.07,1663.49 1937.74,1665.12 1946.29,1665.12C1946.29,1666.88 1945.28,1668.77 1943.27,1670.78C1941.26,1672.79 1939,1673.8 1936.48,1673.8C1910.09,1673.8 1891.73,1662.86 1881.42,1640.99C1876.65,1630.68 1874.26,1619.87 1874.26,1608.56C1874.26,1597.25 1876.52,1585.3 1881.05,1572.73C1890.85,1545.58 1908.33,1525.47 1933.47,1512.4C1949.81,1504.1 1967.09,1499.95 1985.32,1499.95C2003.54,1499.95 2024.35,1503.54 2047.73,1510.7C2071.11,1517.87 2089.96,1521.45 2104.29,1521.45C2125.91,1521.45 2138.36,1516.42 2141.63,1506.36C2143.39,1501.59 2142.89,1498.44 2140.12,1496.94C2139.62,1496.68 2139.24,1496.56 2138.99,1496.56C2140.5,1490.53 2144.02,1487.51 2149.55,1487.51Z" style="fill-rule:nonzero;"/>
    <path d="M2092.6,1798.24C2085.57,1798.24 2082.05,1792.84 2082.05,1782.03C2082.05,1776.25 2089.08,1734.13 2103.16,1655.7C2104.17,1650.42 2106.43,1647.78 2109.95,1647.78C2114.48,1647.78 2117.87,1651.05 2120.13,1657.58C2121.39,1661.1 2122.02,1664.94 2122.02,1669.09C2122.02,1673.23 2121.51,1677.69 2120.51,1682.47L2114.48,1713.39L2116.36,1713.39C2137.98,1663.11 2157.84,1637.97 2175.94,1637.97C2186,1637.97 2192.66,1642.88 2195.93,1652.68C2197.19,1656.45 2197.82,1660.79 2197.82,1665.69C2197.82,1670.59 2196.43,1675.93 2193.67,1681.72C2188.89,1691.52 2181.73,1696.42 2172.17,1696.42C2170.16,1696.42 2168.59,1695.92 2167.46,1694.92C2166.33,1693.91 2165.64,1692.53 2165.39,1690.77C2167.4,1690.77 2170.04,1687.06 2173.3,1679.64C2176.57,1672.23 2178.46,1665.38 2178.96,1659.09C2179.46,1652.81 2177.33,1649.16 2172.55,1648.15C2163.75,1648.15 2153.32,1659.59 2141.25,1682.47C2129.18,1705.35 2119.5,1727.22 2112.21,1748.09C2104.92,1768.95 2100.65,1782.53 2099.39,1788.82C2098.14,1795.1 2095.87,1798.24 2092.6,1798.24Z" style="fill-rule:nonzero;"/>
    <path d="M2259.66,1572.36C2265.44,1572.36 2268.34,1576.25 2268.34,1584.05C2268.34,1591.84 2264.56,1598.13 2257.02,1602.9C2253.25,1605.42 2249.98,1606.67 2247.22,1606.67C2243.2,1606.67 2240.81,1605.42 2240.05,1602.9L2239.68,1601.77C2241.94,1601.77 2243.57,1599.32 2244.58,1594.42C2245.58,1589.52 2247.15,1584.61 2249.29,1579.71C2251.43,1574.81 2254.89,1572.36 2259.66,1572.36ZM2235.53,1789.19C2242.06,1789.19 2251.24,1780.52 2263.05,1763.17C2274.87,1745.83 2285.05,1728.48 2293.6,1711.13L2306.42,1685.11L2316.6,1685.11C2315.1,1688.13 2313.15,1692.21 2310.76,1697.37C2308.37,1702.52 2303.66,1711.7 2296.62,1724.9C2289.58,1738.1 2282.85,1749.72 2276.44,1759.78C2270.03,1769.84 2262.87,1778.95 2254.95,1787.12C2247.03,1795.29 2240.18,1799.37 2234.39,1799.37C2215.79,1799.37 2206.49,1787.31 2206.49,1763.17C2206.49,1745.07 2211.64,1715.66 2221.95,1674.93C2222.96,1670.66 2223.77,1667.39 2224.4,1665.12C2225.03,1662.86 2225.72,1659.91 2226.48,1656.26C2227.23,1652.62 2227.99,1649.29 2228.74,1646.27C2230,1640.99 2232.26,1638.35 2235.53,1638.35C2240.05,1638.35 2243.32,1641.62 2245.33,1648.15C2246.34,1651.17 2246.84,1654.82 2246.84,1659.09C2246.84,1663.37 2246.34,1667.83 2245.33,1672.48C2244.33,1677.13 2242.69,1683.98 2240.43,1693.03C2238.17,1702.08 2236.41,1709.5 2235.15,1715.28C2233.89,1721.06 2232.51,1728.1 2231,1736.4C2228.24,1750.23 2226.85,1762.48 2226.85,1773.17C2226.85,1783.85 2229.74,1789.19 2235.53,1789.19Z" style="fill-rule:nonzero;"/>
    <path d="M2314.72,1748.47C2314.72,1774.86 2321.76,1788.06 2335.84,1788.06C2345.39,1788.06 2354.32,1782.15 2362.61,1770.34C2378.45,1748.21 2388.13,1719.05 2391.65,1682.85C2382.85,1679.08 2376.69,1672.92 2373.17,1664.37C2370.91,1659.09 2369.78,1654.63 2369.78,1650.98C2369.78,1647.34 2370.28,1644.13 2371.28,1641.37C2373.55,1634.58 2377.7,1631.18 2383.73,1631.18C2389.76,1631.18 2394.35,1635.02 2397.49,1642.69C2400.64,1650.36 2402.21,1660.1 2402.21,1671.91L2402.21,1674.55C2405.22,1675.56 2409.69,1676.06 2415.6,1676.06C2421.5,1676.06 2426.72,1673.67 2431.24,1668.9C2435.77,1664.12 2438.03,1659.72 2438.03,1655.7C2438.03,1654.69 2438.66,1654 2439.92,1653.62C2441.18,1653.25 2442.37,1653.31 2443.5,1653.81C2444.63,1654.32 2445.2,1655.07 2445.2,1656.07C2445.2,1663.37 2442.12,1670.28 2435.96,1676.82C2429.8,1683.35 2421.57,1686.62 2411.26,1686.62C2408.74,1686.62 2405.48,1686.37 2401.45,1685.87C2399.95,1702.96 2396.36,1719.87 2390.71,1736.59C2385.05,1753.31 2377.19,1767.76 2367.14,1779.95C2357.08,1792.15 2346.27,1798.24 2334.7,1798.24C2312.83,1798.24 2299.38,1786.55 2294.36,1763.17C2293.1,1756.38 2292.47,1749.47 2292.47,1742.43C2292.47,1726.59 2296.12,1709.62 2303.41,1691.52C2312.96,1667.89 2324.78,1653.18 2338.85,1647.4C2346.14,1644.89 2351.17,1644.51 2353.94,1646.27C2356.7,1648.03 2358.46,1650.04 2359.22,1652.3C2347.65,1652.3 2337.35,1663.11 2328.3,1684.73C2319.24,1706.36 2314.72,1727.6 2314.72,1748.47Z" style="fill-rule:nonzero;"/>
    <path d="M801.731,1886.45L2669.57,1886.45" style="fill:none;stroke:black;stroke-width:8.33px;"/>
</svg>
