<?xml version="1.0" encoding="UTF-8" standalone="no"?>
<!DOCTYPE svg PUBLIC "-//W3C//DTD SVG 1.1//EN" "http://www.w3.org/Graphics/SVG/1.1/DTD/svg11.dtd">
<svg width="100%" height="100%" viewBox="0 0 1269 1017" version="1.1" xmlns="http://www.w3.org/2000/svg" xmlns:xlink="http://www.w3.org/1999/xlink" xml:space="preserve" xmlns:serif="http://www.serif.com/" style="fill-rule:evenodd;clip-rule:evenodd;stroke-linecap:round;stroke-linejoin:round;stroke-miterlimit:1.5;">
    <path d="M1175.58,208.07C1175.18,206.19 915.028,68.568 805.166,35.992C560.453,-36.571 322.32,94.423 551.551,181.231C718.228,244.35 737.591,211.887 865.051,336.26C925.172,394.925 1335.92,392.324 1225.36,249.147" style="fill:rgb(212,181,143);fill-opacity:0.6;"/>
    <path d="M792.366,310.38C554.486,120.465 -59.211,254.207 4.628,352.245C32.941,395.726 282.725,417.104 403.788,420.314C679.848,427.635 747.786,378.582 792.366,310.38Z" style="fill:rgb(107,83,54);fill-opacity:0.6;"/>
    <path d="M401.663,696.925C662.429,502.756 1142.57,582.371 852.217,734.665C603.12,865.317 114.725,799.099 383.213,625.371C580.89,497.462 805.507,516.385 766.397,377.583C733.445,260.636 412.834,385.35 602.363,694.853C691.886,841.045 754.775,907.716 727.243,1011.84" style="fill:none;stroke:white;stroke-width:8.48px;"/>
    <path d="M393.484,53.358C330.954,98.008 18.654,277.3 39.172,325.343C49.407,349.307 222.308,239.953 116.123,347.03C129.875,352.967 141.33,349.767 131.96,361.837C123.049,373.315 242.87,347.19 290.515,393.851C445.631,367.074 447.845,401.941 518.347,381.453C533.187,377.14 523.164,370.54 444.464,202.955C475.393,252.082 548.207,387.091 580.023,387.384C631.294,387.855 813.806,372.017 834.103,370.256C691.114,258.676 692.847,245.615 656.409,190.302C870.125,380.155 878.218,376.025 930.827,373.972C987.244,371.77 989.636,400.292 1166.83,352.886C1115.4,310.05 1115.21,312.369 1058.61,276.503C1182.25,298.473 1186.63,288.029 1223.33,316.037C1227.57,319.271 1306.53,326.662 1233.46,250.164C1126.17,137.843 1103.72,173.762 766.145,42.327C682.091,9.6 598.194,45.006 569.895,29.736C494.641,-10.871 487.988,-0.562 414.063,42.692" style="fill:none;stroke:white;stroke-width:8.33px;"/>
</svg>
