<?xml version="1.0" encoding="UTF-8" standalone="no"?>
<!DOCTYPE svg PUBLIC "-//W3C//DTD SVG 1.1//EN" "http://www.w3.org/Graphics/SVG/1.1/DTD/svg11.dtd">
<svg width="100%" height="100%" viewBox="0 0 607 243" version="1.1" xmlns="http://www.w3.org/2000/svg" xmlns:xlink="http://www.w3.org/1999/xlink" xml:space="preserve" xmlns:serif="http://www.serif.com/" style="fill-rule:evenodd;clip-rule:evenodd;stroke-linejoin:round;stroke-miterlimit:2;">
    <path d="M476.548,1.787C456.348,6.087 448.048,10.987 431.848,27.987C421.648,38.687 418.548,42.687 415.448,48.987C413.348,53.287 411.448,56.787 411.148,56.787C410.848,56.787 409.348,54.787 407.748,52.187C402.048,43.287 377.848,19.887 374.248,19.887C373.548,19.887 367.648,25.487 360.248,33.187L355.948,37.687L361.748,41.687C368.948,46.587 384.848,62.887 389.848,70.687C391.948,73.787 393.948,76.587 394.248,76.887C394.648,77.187 398.248,83.687 402.248,91.387C406.348,99.087 410.148,106.087 410.648,106.987C416.248,115.987 420.248,125.687 422.748,135.887C424.748,143.987 424.448,145.687 420.748,150.787C416.048,157.287 408.848,170.487 404.248,181.187C391.048,212.187 388.448,238.787 398.248,242.287C404.048,244.287 407.148,242.487 420.048,229.487C437.748,211.687 441.348,204.487 443.248,182.587C444.348,169.987 444.048,144.087 442.548,132.287L441.948,127.287L448.648,118.787C452.448,114.187 456.148,109.587 457.048,108.587C458.348,106.987 458.348,106.887 456.848,107.487C455.948,107.787 455.148,108.387 455.148,108.787C455.148,110.087 442.348,123.087 441.848,122.187C441.548,121.787 440.948,119.587 440.548,117.387C439.648,112.287 437.048,104.787 434.148,98.487L431.848,93.587L443.948,81.987C454.348,71.987 460.848,63.887 458.548,63.887C458.148,63.887 454.348,67.487 450.048,71.887C445.748,76.287 441.548,79.887 440.648,79.887C432.748,79.887 426.048,65.387 427.548,51.487C428.148,45.387 430.748,35.787 433.148,30.787C435.248,26.187 445.548,22.087 461.448,19.287C479.848,16.087 493.548,18.987 498.948,27.187C501.248,30.687 501.448,31.487 500.848,39.387C499.948,52.587 492.748,66.687 478.348,83.787C471.948,91.387 474.348,89.787 482.148,81.387C500.148,61.887 507.248,52.487 513.048,40.387C523.448,18.787 520.548,5.387 504.548,0.987C498.848,-0.613 485.848,-0.213 476.548,1.787ZM426.048,178.987C426.248,199.487 423.448,220.287 420.048,224.287C418.548,225.987 413.548,222.887 411.848,219.287C409.548,214.487 409.648,203.587 412.248,193.587C415.148,182.187 418.948,170.587 421.948,163.987L424.548,158.387L425.248,163.887C425.648,166.887 425.948,173.687 426.048,178.987Z" style="fill:white;fill-rule:nonzero;"/>
    <path d="M123.148,8.687C119.648,9.987 115.048,13.987 102.948,25.987C88.848,39.887 86.848,42.387 83.748,48.987C80.448,56.387 77.148,68.687 77.148,73.987C77.148,75.487 76.748,76.987 76.348,77.287C75.948,77.487 75.448,85.287 75.248,94.587C75.048,111.287 76.348,126.287 79.648,144.287C80.448,148.587 81.148,152.187 81.148,152.387C81.148,152.487 79.348,153.187 77.248,153.887C74.648,154.687 70.548,157.987 64.548,163.987L55.748,172.787L63.548,170.387C73.748,167.087 80.448,167.087 83.648,170.387C86.548,173.187 86.748,175.287 84.648,183.387C81.548,195.387 73.048,210.587 66.748,215.387C61.348,219.487 50.548,221.787 41.748,220.787C20.348,218.387 14.148,205.487 20.548,176.287C24.548,158.187 37.848,126.587 47.548,112.387C52.648,104.987 59.748,95.287 62.548,91.787C65.948,87.687 53.148,100.887 46.448,108.387C31.948,124.787 18.148,148.687 8.748,173.687C1.148,194.187 -1.852,213.387 1.148,223.287C4.148,233.287 13.548,238.887 27.148,238.887C40.948,238.887 49.148,234.887 63.048,221.587C73.148,211.987 87.248,196.187 90.648,190.787C92.248,188.087 93.948,185.887 94.348,185.887C94.648,185.887 96.348,188.287 98.048,191.087C105.248,203.687 115.648,209.887 129.548,209.887C134.448,209.887 134.648,209.787 141.848,202.187L149.148,194.587L152.048,198.987C153.548,201.487 156.148,204.487 157.648,205.687C162.448,209.487 170.848,208.287 179.648,202.687C192.248,194.487 197.048,190.887 203.048,184.987C206.948,181.087 210.148,177.787 210.148,177.487C210.148,177.287 206.248,179.487 201.448,182.487C189.048,190.287 181.448,191.987 176.348,188.087L174.048,186.287L185.648,174.887C201.248,159.487 204.748,152.587 199.448,147.387C197.248,145.187 189.148,146.087 184.148,149.187C178.948,152.287 155.548,175.587 152.748,180.387C151.448,182.587 150.048,186.087 149.648,188.187C148.848,192.387 147.848,192.687 138.948,190.787C123.948,187.587 115.948,177.287 103.648,145.987C97.448,129.987 93.148,103.587 93.148,80.787C93.148,63.787 92.848,64.487 103.948,55.987C114.848,47.587 141.148,21.587 143.648,16.787C145.748,12.887 144.948,9.587 141.648,8.087C138.048,6.387 128.448,6.687 123.148,8.687ZM124.548,26.987C129.648,30.987 128.448,32.687 111.948,45.987C103.548,52.787 96.348,58.687 96.048,59.187C92.948,63.687 96.848,41.887 100.748,33.187C103.548,26.787 106.748,24.987 115.748,24.887C120.448,24.887 122.448,25.387 124.548,26.987ZM182.048,166.487C183.248,167.987 184.148,169.887 184.148,170.787C184.148,171.687 181.348,174.787 177.948,177.787L171.848,183.287L170.048,180.987C165.948,175.987 166.748,165.987 171.248,164.787C176.548,163.287 179.948,163.787 182.048,166.487Z" style="fill:white;fill-rule:nonzero;"/>
    <path d="M244.948,54.687L236.348,63.387L237.348,68.887C238.648,75.887 237.748,100.787 235.748,111.387C233.948,120.987 232.548,127.087 227.748,144.887C222.948,163.187 219.148,182.087 219.148,188.387C219.148,193.987 221.448,202.987 223.748,206.687C226.948,211.587 232.848,211.387 240.148,205.987C243.848,203.187 257.148,190.287 257.148,189.487C257.148,189.187 255.948,189.687 254.448,190.487C250.448,192.487 244.848,192.287 242.748,189.987C240.448,187.487 237.148,176.687 237.148,171.787C237.148,168.287 237.348,167.887 239.748,167.887C241.748,167.887 244.648,165.687 251.248,159.187C256.148,154.487 259.948,150.287 259.648,150.087C259.448,149.787 255.148,149.687 250.248,149.787C245.348,149.887 241.048,149.587 240.748,149.087C240.448,148.587 243.148,137.087 246.648,123.387C250.148,109.687 253.748,93.887 254.648,88.187C256.848,73.287 256.548,45.887 254.248,45.887C253.848,45.887 249.648,49.787 244.948,54.687Z" style="fill:white;fill-rule:nonzero;"/>
    <path d="M596.348,144.187L588.048,152.587L588.348,166.587C588.548,174.387 588.348,180.987 588.048,181.287C587.048,182.387 580.748,179.687 577.848,176.987C575.448,174.787 575.048,173.787 575.448,170.687C575.948,166.587 579.448,158.787 582.348,154.987C586.448,149.587 583.748,150.887 577.148,157.387C566.848,167.487 557.148,183.487 557.148,190.187C557.148,192.887 560.348,196.587 563.848,197.987C567.348,199.287 573.348,199.087 577.248,197.487C580.648,196.087 600.848,176.287 602.948,172.187C606.048,166.487 607.148,158.587 606.448,147.187C606.148,140.987 605.548,135.887 605.248,135.887C604.848,135.887 600.848,139.587 596.348,144.187Z" style="fill:white;fill-rule:nonzero;"/>
    <path d="M512.848,137.787C510.448,138.187 507.348,139.887 504.048,142.787C499.548,146.687 498.848,146.987 497.348,145.587C494.448,143.087 489.648,142.787 486.948,144.787C482.848,148.087 471.148,160.087 471.148,160.987C471.148,161.487 472.648,161.887 474.448,161.887C476.448,161.887 478.548,162.687 479.448,163.687C481.048,165.387 480.848,165.987 476.648,173.387C470.948,183.387 464.748,201.887 467.048,201.887C468.948,201.887 488.648,180.687 492.148,174.887C494.148,171.687 496.748,165.887 498.048,161.987C500.248,155.187 500.448,154.987 503.148,155.587C505.748,156.087 506.948,155.187 514.548,147.287C519.248,142.487 522.948,138.387 522.848,138.287C521.948,137.687 515.948,137.387 512.848,137.787Z" style="fill:white;fill-rule:nonzero;"/>
    <path d="M362.748,144.387C359.048,146.887 351.248,153.787 345.548,159.687C333.648,171.787 332.948,173.687 338.448,178.887C340.148,180.587 343.848,183.287 346.448,185.087C351.948,188.587 352.448,187.187 341.348,198.587C337.948,202.187 335.348,205.387 335.648,205.887C335.948,206.287 338.448,206.987 341.148,207.387C347.448,208.287 348.748,207.487 360.548,195.487C371.148,184.587 371.848,183.687 372.648,177.787L373.348,173.187L364.948,167.087C360.248,163.687 355.948,160.387 355.348,159.587C354.348,158.487 355.948,156.387 363.348,149.087C368.548,143.987 371.948,139.887 371.048,139.887C370.248,139.887 366.448,141.887 362.748,144.387Z" style="fill:white;fill-rule:nonzero;"/>
    <path d="M547.448,151.687C539.348,159.787 532.648,170.587 528.448,181.887C526.048,188.487 524.748,194.887 525.848,194.887C526.348,194.887 530.348,191.187 534.848,186.587C542.348,179.087 543.048,177.887 544.048,172.887C545.248,166.187 547.748,159.487 552.548,150.587C554.548,146.887 555.948,143.887 555.748,143.887C555.448,143.887 551.748,147.387 547.448,151.687Z" style="fill:white;fill-rule:nonzero;"/>
    <path d="M299.648,154.887C291.948,162.687 288.448,164.187 293.348,157.587C298.148,151.287 297.248,151.787 289.448,159.987C273.148,177.087 269.348,183.487 268.448,195.387C267.748,203.787 268.948,206.887 272.748,206.887C276.748,206.887 280.148,204.587 288.148,196.487C292.248,192.287 295.948,188.887 296.348,188.887C296.648,188.887 297.248,189.687 297.648,190.787C298.548,193.787 302.848,197.887 306.248,199.087C309.248,200.087 309.548,199.987 318.148,191.387C326.848,182.787 327.948,180.887 324.248,180.887C322.048,180.887 316.848,175.487 314.348,170.387C311.748,165.087 308.348,154.187 307.948,150.087L307.648,146.787L299.648,154.887ZM290.448,179.587C289.348,191.887 285.848,190.287 286.448,177.687C286.848,168.687 289.148,164.187 290.348,169.987C290.648,171.887 290.748,176.187 290.448,179.587Z" style="fill:white;fill-rule:nonzero;"/>
</svg>
